<svg xmlns="http://www.w3.org/2000/svg" viewBox="0 0 17 17"><path d="M17 16.9H.3c0-.7 0-1.4.1-1.7.1-.5 1.3-1.3 3.5-2.1.3-.1.7-.2 1.3-.4.6-.2 1.1-.4 1.2-.5.1-.2.2-.6.2-1.2v-.2c0-.3-.1-.6-.4-1.1-.4-.4-.5-.9-.7-1.8 0-.3-.1-.5-.2-.7-.1-.1-.2-.5-.3-1.1-.1-.2-.1-.4 0-.7 0-.2.1-.3.1-.4-.1-.4-.2-1-.2-1.4-.1-.6.2-1.4.8-2.1S7.3.3 8.7.3s2.3.4 3 1.2c.6.7.9 1.5.8 2.1-.1.5-.1.9-.2 1.5 0 .1 0 .2.1.4s.1.5 0 .7c-.1.5-.2.8-.3 1.1-.1.2-.2.4-.2.7-.1.8-.3 1.4-.6 1.8-.3.4-.4.6-.4 1.1 0 .8.1 1.4.2 1.5.1.1.7.3 2.1.8.1 0 .1.1.2.1 2.2.8 3.4 1.6 3.5 2.1l.1 1.5z"></path></svg>