<svg class="qodef-svg-search-open" xmlns="http://www.w3.org/2000/svg" width="18" height="18" viewBox="0 0 18 18"><path d="M17.3 17.4c-.2.2-.5.2-.7 0l-4.7-4.7c-2.8 2.4-7.1 2.2-9.6-.5s-2.4-7 .2-9.6 6.9-2.7 9.6-.2 3 6.8.5 9.6l4.7 4.7c.3.1.3.5 0 .7zm-9.9-4.1c3.2 0 5.8-2.6 5.8-5.8s-2.6-5.8-5.8-5.8-5.8 2.5-5.8 5.7 2.6 5.9 5.8 5.9z"></path><path d="M17.4 16.4l-4.5-4.5c.9-1.2 1.5-2.7 1.5-4.3 0-3.8-3.1-7-7-7-3.8 0-7 3.1-7 7s3.1 7 7 7c1.7 0 3.2-.6 4.4-1.5l4.5 4.5c.2.2.3.2.5.2s.4-.1.5-.2c.4-.5.4-.9.1-1.2zM1.9 7.5c0-3 2.4-5.5 5.5-5.5 3 0 5.5 2.4 5.5 5.5S10.4 13 7.4 13s-5.5-2.5-5.5-5.5z"></path></svg>